<svg width="24" height="24" viewBox="0 0 24 24" fill="none" xmlns="http://www.w3.org/2000/svg">
<g id="icons/arrival-time" clip-path="url(#clip0_801_26695)">
<path id="Vector" d="M15.8004 12.0673H12.7554V8.95732C12.7554 8.24982 12.4479 7.55482 11.8654 6.94982L11.3779 6.44482V13.4423H17.6879L17.3079 12.9573C16.8529 12.3748 16.3304 12.0673 15.7954 12.0673H15.8004Z" fill="#051766"/>
<path id="Vector_2" d="M18.3527 5.78512C16.7102 4.13012 14.4327 3.18262 12.1052 3.18262C12.0827 3.18262 12.0602 3.18262 12.0402 3.18262C9.7052 3.18262 7.4277 4.13012 5.7877 5.78262C4.1227 7.43262 3.1752 9.72512 3.1827 12.0651C3.1727 14.4101 4.1227 16.7026 5.7827 18.3501C7.4252 20.0076 9.7027 20.9551 12.0327 20.9551H12.0977C14.4327 20.9551 16.7102 20.0076 18.3502 18.3551C20.0152 16.7051 20.9627 14.4126 20.9552 12.0726C20.9652 9.72762 20.0152 7.43762 18.3527 5.78762V5.78512ZM17.3952 17.4001C16.0252 18.7826 14.0452 19.6051 12.0927 19.6051C12.0827 19.6051 12.0752 19.6051 12.0652 19.6051C12.0552 19.6051 12.0477 19.6051 12.0377 19.6051C10.0902 19.6051 8.1102 18.7826 6.7352 17.3951C5.3477 16.0176 4.5227 14.0276 4.5302 12.0651C4.5227 10.1076 5.3477 8.11762 6.7402 6.73762C8.1102 5.35512 10.0902 4.53262 12.0427 4.53262C12.0602 4.53262 12.0777 4.53262 12.0952 4.53262C14.0427 4.53262 16.0227 5.35512 17.3927 6.73762L17.3977 6.74262C18.7852 8.12012 19.6102 10.1101 19.6027 12.0726C19.6102 14.0301 18.7852 16.0201 17.3927 17.4001H17.3952Z" fill="#051766"/>
</g>
<defs>
<clipPath id="clip0_801_26695">
<rect width="24" height="24" fill="white"/>
</clipPath>
</defs>
</svg>
