<svg width="96" height="96" viewBox="0 0 96 96" fill="none" xmlns="http://www.w3.org/2000/svg">
<g id="icons/arrow-down" clip-path="url(#clip0_105_1906)">
<path id="Union" fill-rule="evenodd" clip-rule="evenodd" d="M71.7205 34.5455C70.2547 35.0653 68.9092 35.8764 67.7652 36.9301L58.7973 45.9131L58.8246 45.9403L47.9997 56.6959L37.3468 45.9345L37.3685 45.9129L28.3855 36.9299C27.24 35.8785 25.8943 35.0687 24.4288 34.5491C22.9634 34.0294 21.4082 33.8105 19.8562 33.9054H16.9072L17.8146 34.8127L18.0112 35.0093L33.1341 50.1322L33.1634 50.103L47.9695 65.074L63.0022 50.1179L63.0166 50.1323L68.6364 44.5126L68.7029 44.4464L68.7028 44.4462L78.1395 35.0095L78.3361 34.8129L79.2435 33.9055H76.2945C74.7423 33.808 73.1864 34.0257 71.7205 34.5455Z" fill="#051766"/>
</g>
<defs>
<clipPath id="clip0_105_1906">
<rect width="96" height="96" fill="white"/>
</clipPath>
</defs>
</svg>
