<svg width="40" height="40" viewBox="0 0 40 40" fill="none" xmlns="http://www.w3.org/2000/svg">
<g clip-path="url(#clip0_638_6405)">
<path fill-rule="evenodd" clip-rule="evenodd" d="M9.51061 8.23546L9.15346 7.87891L9.14575 8.4959L9.14041 9.03578C9.12795 10.4217 9.5468 11.5791 10.3507 12.3818L13.8693 15.8934L13.881 15.8814L18.1066 20.1317L13.8735 24.3222L13.8694 24.3184L12.8514 25.3339L12.222 25.9575L12.2243 25.9597L10.3507 27.83C9.54685 28.6327 9.12801 29.7901 9.14047 31.176L9.14581 31.7159L9.15352 32.3329L9.51007 31.9763L9.5872 31.8998L15.5228 25.976L15.511 25.9643L19.9735 21.5476L24.436 25.9643L24.4241 25.976L30.3597 31.8998L30.4369 31.9763L30.7934 32.3329L30.8011 31.7159L30.8065 31.176C30.8189 29.7901 30.4001 28.6327 29.5962 27.83L27.7226 25.9597L27.725 25.9575L27.0956 25.3339L26.0775 24.3184L26.0735 24.3222L21.8404 20.1317L26.066 15.8814L26.0776 15.8934L29.5963 12.3818C30.4001 11.5791 30.819 10.4217 30.8065 9.03578L30.8012 8.4959L30.7935 7.87891L30.4363 8.23546L30.3598 8.31199L26.6493 12.0147L26.6435 12.0092L25.1435 13.5177L24.4242 14.2358L24.4272 14.2385L19.9735 18.7188L15.5197 14.2385L15.5228 14.2358L14.8035 13.5177L13.3035 12.0092L13.2976 12.0147L9.58714 8.31199L9.51061 8.23546Z" fill="#051766"/>
</g>
<defs>
<clipPath id="clip0_638_6405">
<rect width="40" height="40" fill="white"/>
</clipPath>
</defs>
</svg>
