<svg width="24" height="24" viewBox="0 0 24 24" fill="none" xmlns="http://www.w3.org/2000/svg">
<g id="icons/delete">
<path id="Union" fill-rule="evenodd" clip-rule="evenodd" d="M9.08264 2.86328H14.5656V4.23339H9.08264V2.86328ZM16.2488 19.7665C16.3925 19.7665 16.5105 19.6254 16.5105 19.4561H16.5156V8.51571H17.8857V19.4561C17.8857 20.3823 17.1519 21.1366 16.2513 21.1366H7.40208C6.5015 21.1366 5.7677 20.3823 5.7677 19.4561V8.51571H7.13781V19.4561C7.13781 19.628 7.25583 19.7665 7.39952 19.7665H16.2488ZM8.60028 8.50025V16.3976L9.08521 15.9845C9.6625 15.4919 9.97039 14.9249 9.97039 14.3476V14.3425V8.50025H8.60028ZM11.1378 16.3976V8.50021H12.5079V14.3424V14.3476C12.5079 14.9248 12.2 15.4919 11.6227 15.9845L11.1378 16.3976ZM13.6752 8.50021V16.3976L14.1602 15.9845C14.7375 15.4919 15.0453 14.9248 15.0453 14.3476V14.3424V8.50021H13.6752ZM5.10059 6.9686V5.59849H18.9043L18.4912 6.08341C17.996 6.66071 17.4264 6.9686 16.8466 6.9686H5.10059Z" fill="#051766"/>
</g>
</svg>
