<svg width="24" height="24" viewBox="0 0 24 24" fill="none" xmlns="http://www.w3.org/2000/svg">
<g id="Frame 3466711" clip-path="url(#clip0_819_14990)">
<g id="icons/attach">
<path id="Vector" d="M15.7747 5.60549L15.2898 5.19424V16.8744C15.2898 18.6895 13.8149 20.1644 11.9998 20.1644C10.1846 20.1644 8.70972 18.6895 8.70972 16.8744V6.05229C8.70972 4.83122 9.70231 3.83862 10.9234 3.83862C12.1445 3.83862 13.137 4.83122 13.137 6.05229V15.2928C13.137 15.9199 12.6268 16.4301 11.9998 16.4301C11.3727 16.4301 10.8625 15.9199 10.8625 15.2928V8.6569C10.8625 8.0781 10.5553 7.50945 9.97648 7.01188L9.49161 6.60063V15.2928C9.49161 16.6764 10.6162 17.801 11.9998 17.801C13.3833 17.801 14.5079 16.6764 14.5079 15.2928V6.05229C14.5079 4.07471 12.901 2.46777 10.9234 2.46777C8.94581 2.46777 7.33887 4.07471 7.33887 6.05229V16.9074C7.35664 19.4638 9.4383 21.5353 11.9972 21.5353C14.5561 21.5353 16.6581 19.4434 16.6581 16.8744V7.25051C16.6581 6.67171 16.3509 6.10306 15.7721 5.60549H15.7747Z" fill="#051766"/>
</g>
</g>
<defs>
<clipPath id="clip0_819_14990">
<rect width="24" height="24" fill="white"/>
</clipPath>
</defs>
</svg>
