<svg width="40" height="40" viewBox="0 0 40 40" fill="none" xmlns="http://www.w3.org/2000/svg">
<g id="icons/folder-open">
<path id="Vector" d="M34.9002 20.9958C34.6835 20.6875 34.3293 20.5 33.9543 20.5H31.8127C31.6002 19.6042 31.146 18.7417 30.4627 17.9625L29.646 17.0375V20.5H8.89183C8.4085 20.5 7.97516 20.8 7.8085 21.2542L6.89183 23.7333V11.0583H12.2627C13.346 11.0583 14.3502 11.6 14.9418 12.5042L17.221 15.9708H28.746L27.821 15.1542C26.7085 14.1792 25.4335 13.6625 24.1293 13.6625H18.4668L16.871 11.2375C15.846 9.67917 14.1252 8.75 12.2627 8.75H4.5835V31.3417H30.8002C31.2835 31.3417 31.7168 31.0417 31.8835 30.5875L35.0377 22.0542C35.1668 21.7 35.1168 21.3042 34.9002 20.9958ZM29.996 29.0333H7.396L9.696 22.8083H32.296L29.996 29.0333Z" fill="#051766"/>
</g>
</svg>
