<svg width="32" height="32" viewBox="0 0 32 32" fill="none" xmlns="http://www.w3.org/2000/svg">
<g clip-path="url(#clip0_143_4564)">
<path fill-rule="evenodd" clip-rule="evenodd" d="M20.62 10.7089C20.8867 10.3922 21.0133 9.98887 20.9766 9.57887C20.94 9.16553 20.7467 8.7922 20.43 8.52553L16.6633 5.3622C16.01 4.8122 15.03 4.89887 14.48 5.5522L4.33331 17.6489L5.20669 22.8455L10.4734 22.8022L20.62 10.7055V10.7089ZM6.67332 21.0989L6.17999 18.1555L12.5534 10.5589L12.8667 10.8222L12.87 10.8183C13.6196 11.4465 14.605 11.7655 15.7167 11.7422L16.6466 11.7188L13.9833 9.48551L13.98 9.48943L13.67 9.22886L15.69 6.81887L19.17 9.73887L9.65997 21.0789L6.67666 21.1022L6.67332 21.0989ZM27.3633 25.5555H5.4033V27.2922H27.3633V25.5555Z" fill="white"/>
</g>
<defs>
<clipPath id="clip0_143_4564">
<rect width="32" height="32" fill="white"/>
</clipPath>
</defs>
</svg>
