<svg xmlns="http://www.w3.org/2000/svg" width="96" height="96" viewBox="0 0 96 96" fill="none">
  <g clip-path="url(#clip0_9_16979)">
    <path d="M67.0398 50.1472L62.8508 54.306L48.0001 39.3041L31.4557 55.7427L27.2969 51.5536L48.0303 30.926L67.0398 50.1472Z" fill="#333333"/>
    <path d="M67.6143 59.0701C68.7598 60.1215 70.1055 60.9313 71.571 61.4509C73.0364 61.9706 74.5916 62.1895 76.1436 62.0946H79.0926L78.1852 61.1873L77.9886 60.9907L62.8658 45.8678L58.6313 50.0871L67.6143 59.0701Z" fill="#333333"/>
    <path d="M28.2346 59.0699C27.0906 60.1236 25.7451 60.9347 24.2793 61.4545C22.8134 61.9743 21.2575 62.192 19.7053 62.0945H16.7563L17.6637 61.1871L17.8603 60.9905L32.9832 45.8677L37.2025 50.0869L28.2346 59.0699Z" fill="#333333"/>
  </g>
  <defs>
    <clipPath id="clip0_9_16979">
      <rect width="96" height="96" fill="white"/>
    </clipPath>
  </defs>
</svg>