<svg width="32" height="32" viewBox="0 0 32 32" fill="none" xmlns="http://www.w3.org/2000/svg">
<path d="M11.9499 26.9789C11.8348 26.9789 11.7434 26.8841 11.7434 26.7724V25.3542H19.9109C21.0347 25.3542 21.9452 24.4403 21.9452 23.3199V8.65689H23.5225C23.6376 8.65689 23.729 8.75167 23.729 8.86336V25.5471L24.3755 24.7923C25.1472 23.8885 25.5568 22.8494 25.5568 21.79V8.86336C25.5568 7.73961 24.6429 6.82909 23.5225 6.82909H21.9452V5.41086C21.9452 4.2871 21.0313 3.37659 19.9109 3.37659H8.33829C7.21453 3.37659 6.30402 4.29049 6.30402 5.41086V23.3165C6.30402 24.4403 7.21792 25.3508 8.33829 25.3508H9.9156V26.769C9.9156 27.8928 10.8295 28.8033 11.9499 28.8033H22.1348C23.1942 28.8033 24.2333 28.3937 25.1371 27.622L25.8919 26.9755H11.9499V26.9789ZM8.3349 23.523C8.21982 23.523 8.12841 23.4282 8.12841 23.3165V5.41086C8.12841 5.29577 8.2232 5.20438 8.3349 5.20438H19.9076C20.0227 5.20438 20.114 5.29916 20.114 5.41086V23.3165C20.114 23.4316 20.0193 23.523 19.9076 23.523H8.3349ZM18.3742 10.9619L18.9226 10.3154H16.1809H9.31987V12.1432H16.1809C16.9526 12.1432 17.7108 11.7337 18.3742 10.9619ZM13.8792 14.0184H9.32326V15.8462H13.8792C14.651 15.8462 15.4092 15.4367 16.0726 14.6649L16.6209 14.0184H13.8792Z" fill="#051766"/>
</svg>
