<svg width="36" height="36" viewBox="0 0 36 36" fill="none" xmlns="http://www.w3.org/2000/svg">
<path d="M28.5822 22.9224C27.9845 21.963 27.0502 21.2612 25.9622 20.9545C25.0385 20.7068 24.082 20.6034 23.1267 20.6483H10.6503L11.6881 14.4725C11.8721 13.3525 12.2563 12.2748 12.8223 11.291C13.338 10.4016 14.1546 9.72576 15.1248 9.38554C15.6078 9.21171 16.1108 9.09929 16.6219 9.05095C17.1877 8.99601 17.7575 8.99601 18.3233 9.05095C19.382 9.12991 20.3967 9.50746 21.2495 10.1398C22.1035 10.8191 22.7725 11.7026 23.1947 12.7088C23.4371 13.2329 23.6381 13.7752 23.7958 14.3307C23.9433 14.8071 24.0454 15.2721 24.1758 15.7995L24.6692 18.068C24.794 18.6351 25.3781 19.0831 26.3705 19.3723L26.7561 19.4857L27.1928 19.6162L27.1361 19.3666V19.3099L26.3251 15.6067C25.7977 13.2532 24.9584 10.2929 22.5652 8.47817C21.4435 7.63893 20.1141 7.12132 18.7202 6.98101V4.76929H16.5822V6.92997H16.4405C15.7266 6.99793 15.0249 7.16002 14.3535 7.41201C13.6406 7.66096 12.978 8.03548 12.397 8.51787C11.8294 9.0032 11.3448 9.57785 10.9622 10.2192C10.2664 11.4213 9.79377 12.7393 9.56711 14.1096L8.3138 21.533L8.11531 22.7693H23.104C23.5463 22.7693 23.9433 22.7693 24.3062 22.7693C24.6579 22.7941 25.0059 22.8568 25.344 22.9564C25.9283 23.1125 26.4349 23.4778 26.7675 23.9829C26.9187 24.2575 27.0259 24.5541 27.0851 24.8619H7.73535C7.24764 24.8619 6.7656 25.3383 6.34594 26.2343L6.18715 26.5859L6 26.9829H12.9698C13.0513 28.1046 13.5441 29.1567 14.3535 29.9375C15.2467 30.7766 16.4286 31.2396 17.6541 31.2305C18.8771 31.2303 20.0546 30.7662 20.949 29.9319C21.7652 29.1605 22.2663 28.1138 22.3554 26.9942H29.2854V25.9678C29.3309 24.9077 29.0878 23.8552 28.5822 22.9224ZM19.4972 28.395C18.9947 28.8611 18.3337 29.1185 17.6484 29.1152C16.9656 29.1232 16.3065 28.8649 15.811 28.395C15.4242 28.0208 15.1746 27.5275 15.1021 26.9942H20.206C20.1362 27.5283 19.8861 28.0224 19.4972 28.395Z" fill="#051766"/>
</svg>
