<svg xmlns="http://www.w3.org/2000/svg" width="96" height="96" viewBox="0 0 96 96" fill="none">
  <path fill-rule="evenodd" clip-rule="evenodd" d="M72.2387 19.527C74.5539 22.2382 75.7826 25.3556 75.7826 28.534H75.7725V67.791L59.2004 86.1502H26.3813C22.9694 86.1502 20.1973 83.2156 20.1973 79.6006V16.4096C20.1973 12.8047 22.9694 9.87012 26.3813 9.87012H58.2865C61.4141 9.91074 64.4604 11.1293 67.1311 13.4039L69.3955 15.3434H26.3915C26.0564 15.3434 25.6908 15.8003 25.6908 16.4096V79.6006C25.6908 80.2099 26.0665 80.6668 26.3915 80.6668H56.7735L70.2992 65.689V17.2625L72.2387 19.527ZM33.7637 30.1891V35.6116H54.1132C56.4081 35.6116 58.6522 34.3931 60.612 32.1083L62.2469 30.1891H33.7637ZM33.7637 41.1762V46.5987H47.2792C49.5741 46.5987 51.8183 45.3801 53.7781 43.0954L55.4129 41.1762H33.7637Z" fill="#333333" />
</svg>