<svg width="36" height="36" viewBox="0 0 36 36" fill="none" xmlns="http://www.w3.org/2000/svg">
<path fill-rule="evenodd" clip-rule="evenodd" d="M29.0952 19.7376C29.1923 19.1429 29.2428 18.5521 29.2428 17.973C29.2428 17.3934 29.1922 16.802 29.095 16.2068L31.8609 14.6391L28.0213 7.85456L25.2553 9.42232C24.2789 8.60149 23.1663 7.9557 21.9759 7.50832V4.4662L21.2406 5.09252C20.377 5.83166 19.9141 6.67974 19.8985 7.54337H19.8907V9.02941L20.6377 9.24728C22.0381 9.65965 23.3374 10.4182 24.3917 11.4375L24.948 11.9782L27.2355 10.6827L29.0288 13.8494L26.7414 15.1448L26.9164 15.8995C27.0798 16.5998 27.1615 17.2961 27.1615 17.9652C27.1615 18.6343 27.0798 19.3307 26.9164 20.0309L26.7414 20.7856L29.0288 22.0811L27.2355 25.2477L24.948 23.9522L24.3878 24.493C23.3335 25.5161 22.0343 26.2708 20.6338 26.6832L19.8868 26.9011V29.5269H16.2495V26.9011L15.5026 26.6832C14.1021 26.2708 12.8028 25.5122 11.7485 24.493L11.1922 23.9522L8.90479 25.2477L7.11141 22.0811L9.39885 20.7856L9.22376 20.0309C9.06037 19.3307 8.97868 18.6343 8.97868 17.9652C8.97868 17.2961 9.06037 16.5998 9.22376 15.8995L9.39885 15.1448L7.11141 13.8494L8.90479 10.6827L11.1922 11.9782L11.7485 11.4375C12.8028 10.4143 14.1021 9.65965 15.5026 9.24728L16.2495 9.02941V6.40352H16.9848C17.8523 6.38796 18.7003 5.92504 19.4395 5.05752L20.0658 4.32227H16.9497H14.176V7.50054C12.9856 7.94402 11.8691 8.5976 10.8927 9.41843L8.12674 7.85066L4.28711 14.6352L7.05304 16.203C6.95579 16.7982 6.90521 17.3895 6.90521 17.9691C6.90521 18.5487 6.95579 19.1401 7.05304 19.7353L4.28711 21.303L8.12674 28.0875L10.8927 26.5198C11.8691 27.3406 12.9856 27.9903 14.176 28.4377V31.616H21.9681V28.4377C23.1585 27.9942 24.275 27.3406 25.2515 26.5198L28.0174 28.0875L31.857 21.303L29.0952 19.7376ZM18.074 21.3613C16.2106 21.3613 14.6895 19.8403 14.6895 17.973C14.6895 16.1057 16.2067 14.5846 18.074 14.5846C19.9413 14.5846 21.4585 16.1057 21.4585 17.973C21.4585 19.8403 19.9374 21.3613 18.074 21.3613ZM18.074 19.284C18.7976 19.284 19.385 18.6965 19.385 17.973C19.385 17.2494 18.7976 16.662 18.074 16.662C17.3504 16.662 16.763 17.2494 16.763 17.973C16.763 18.6965 17.3504 19.284 18.074 19.284Z" fill="#051766"/>
</svg>
