<svg xmlns="http://www.w3.org/2000/svg" width="96" height="96" viewBox="0 0 96 96" fill="none">
  <g clip-path="url(#clip0_9_16720)">
    <path d="M45.8525 67.0398L41.6938 62.8508L56.6956 48.0001L40.2571 31.4557L44.4461 27.2969L65.0737 48.0303L45.8525 67.0398Z" fill="#333333" />
    <path d="M36.9302 67.6143C35.8787 68.7598 35.069 70.1055 34.5493 71.571C34.0296 73.0364 33.8107 74.5916 33.9056 76.1436V79.0926L34.813 78.1852L35.0096 77.9886L50.1324 62.8658L45.9132 58.6313L36.9302 67.6143Z" fill="#333333" />
    <path d="M36.9301 28.2346C35.8764 27.0906 35.0653 25.7451 34.5455 24.2793C34.0257 22.8134 33.808 21.2575 33.9055 19.7053V16.7563L34.8129 17.6637L35.0095 17.8603L50.1323 32.9832L45.9131 37.2025L36.9301 28.2346Z" fill="#333333" />
  </g>
  <defs>
    <clipPath id="clip0_9_16720">
      <rect width="96" height="96" fill="white"/>
    </clipPath>
  </defs>
</svg>