<svg width="36" height="36" viewBox="0 0 36 36" fill="none" xmlns="http://www.w3.org/2000/svg">
<path fill-rule="evenodd" clip-rule="evenodd" d="M22.118 21.3431L30.7521 29.9778L30.0179 29.806L29.3754 29.6541C27.7855 29.2774 26.3301 28.4855 25.157 27.3598L25.0229 27.2284L20.6385 22.8447C21.1854 22.4008 21.6819 21.897 22.118 21.3431ZM14.6984 6C19.9082 6 24.1469 10.2505 24.1469 15.4758C24.1469 20.7006 19.9082 24.9511 14.6984 24.9511C9.4887 24.9511 5.25 20.7006 5.25 15.4758C5.25 10.2505 9.4887 6 14.6984 6ZM14.6984 7.89511C10.5306 7.89511 7.13969 11.2957 7.13969 15.4758C7.13969 19.6555 10.5306 23.056 14.6984 23.056C18.8663 23.056 22.2572 19.6555 22.2572 15.4758C22.2572 11.2957 18.8663 7.89511 14.6984 7.89511Z" fill="#051766"/>
</svg>
