<svg width="24" height="24" viewBox="0 0 24 24" fill="none" xmlns="http://www.w3.org/2000/svg">
<g clip-path="url(#clip0_602_1892)">
<path fill-rule="evenodd" clip-rule="evenodd" d="M17.9301 8.63637C17.5637 8.76632 17.2273 8.96911 16.9413 9.23252L14.6993 11.4783L14.7061 11.4851L11.9999 14.174L9.33671 11.4836L9.34212 11.4782L7.09637 9.23248C6.81 8.96962 6.47358 8.76718 6.10721 8.63726C5.74084 8.50735 5.35204 8.45261 4.96405 8.47634H4.22681L4.45365 8.70318L4.5028 8.75233L8.28352 12.5331L8.29085 12.5257L11.9924 16.2685L15.7506 12.5295L15.7542 12.5331L17.1591 11.1282L17.1757 11.1116L17.1757 11.1115L19.5349 8.75237L19.584 8.70321L19.8109 8.47637H19.0736C18.6856 8.45199 18.2966 8.50642 17.9301 8.63637Z" fill="#051766"/>
</g>
<defs>
<clipPath id="clip0_602_1892">
<rect width="24" height="24" fill="white"/>
</clipPath>
</defs>
</svg>
