<svg width="32" height="32" viewBox="0 0 32 32" fill="none" xmlns="http://www.w3.org/2000/svg">
<path fill-rule="evenodd" clip-rule="evenodd" d="M5.97418 16.044C5.97418 17.1305 6.85423 18.0105 7.94076 18.0105C9.02728 18.0105 9.90733 17.1305 9.90733 16.044C9.90733 14.9574 9.02728 14.0774 7.94076 14.0774C6.85423 14.0774 5.97418 14.9574 5.97418 16.044ZM14.0334 16.044C14.0334 17.1305 14.9135 18.0105 16 18.0105C17.0865 18.0105 17.9666 17.1305 17.9666 16.044C17.9666 14.9574 17.0865 14.0774 16 14.0774C14.9135 14.0774 14.0334 14.9574 14.0334 16.044ZM24.0592 18.0105C22.9726 18.0105 22.0926 17.1305 22.0926 16.044C22.0926 14.9574 22.9726 14.0774 24.0592 14.0774C25.1457 14.0774 26.0257 14.9574 26.0257 16.044C26.0257 17.1305 25.1457 18.0105 24.0592 18.0105Z" fill="#051766"/>
</svg>
