<svg width="24" height="25" viewBox="0 0 24 25" fill="none" xmlns="http://www.w3.org/2000/svg">
<g clip-path="url(#clip0_583_3101)">
<path fill-rule="evenodd" clip-rule="evenodd" d="M15.7163 11.9669L15.709 11.9742L12.0075 8.23145L8.24927 11.9704L8.24568 11.9669L6.84077 13.3718L6.8241 13.3883L6.82414 13.3884L4.46496 15.7476L4.41581 15.7967L4.18896 16.0236H4.9262C5.31426 16.0479 5.70324 15.9935 6.0697 15.8636C6.43616 15.7336 6.77253 15.5308 7.05853 15.2674L9.3005 13.0217L9.29369 13.0149L11.9999 10.326L14.6631 13.0163L14.6577 13.0217L16.9035 15.2675C17.1898 15.5303 17.5263 15.7328 17.8926 15.8627C18.259 15.9926 18.6478 16.0473 19.0358 16.0236H19.773L19.5462 15.7968L19.497 15.7476L15.7163 11.9669Z" fill="#051766"/>
</g>
<defs>
<clipPath id="clip0_583_3101">
<rect width="24" height="24" fill="white" transform="translate(0 0.5)"/>
</clipPath>
</defs>
</svg>
