<svg width="38" height="40" viewBox="0 0 38 40" fill="none" xmlns="http://www.w3.org/2000/svg">
<path d="M2.63861 29.8202L2.47885 29.931C5.73846 35.9399 11.9047 40.0026 18.9418 40.0026C29.4086 40.0026 37.8836 31.0421 37.8836 20.0013C37.8836 16.962 36.6236 14.4023 35.1342 12.4612C33.1553 9.88078 30.3363 8.64084 27.5276 8.62022C25.2085 8.5996 22.8095 9.38068 21.1192 10.9093C19.1892 12.6597 18.7589 14.9101 18.2615 18.5603C17.7127 22.5611 14.4917 25.3193 10.3534 25.3193C4.99635 25.3193 1.67748 22.0197 1.8965 16.9698C1.91711 16.6192 1.94546 16.2686 2.0073 15.9309C3.01739 9.971 9.42324 3.82033 19.0603 3.84095C25.528 3.84095 30.3852 5.29226 35.245 10.1824L35.4048 10.0715C32.1477 4.06006 25.9893 0 18.9418 0C8.48787 0 0 8.96049 0 20.0013C0 23.0405 1.26004 25.6003 2.74941 27.5414C4.71806 30.1218 7.54735 31.3514 10.356 31.3824C12.6751 31.4133 15.0741 30.6219 16.7644 29.0933C18.6944 27.3429 19.1248 25.0925 19.6221 21.4423C20.1709 17.4415 23.3996 14.6832 27.5302 14.6832C32.8976 14.6832 36.2165 17.9829 35.9974 23.0328C35.9768 23.3834 35.9485 23.734 35.8866 24.0717C34.8559 30.0316 28.4784 36.1823 18.8233 36.1616C12.3556 36.1616 7.49839 34.7103 2.63861 29.8202Z" fill="#051766"/>
</svg>
