<svg width="480" height="480" viewBox="0 0 480 480" fill="none" xmlns="http://www.w3.org/2000/svg">
<g id="Frame 3466534">
<g id="Group 2719">
<g id="icons/aircraft-info" clip-path="url(#clip0_720_2201)">
<path id="Vector" d="M284.451 58.6689C284.43 58.5651 284.409 58.451 284.389 58.3472L284.358 58.171C284.347 58.0983 284.327 58.0152 284.306 57.9426C284.223 57.6522 284.12 57.3929 284.006 57.1232L283.924 56.926C283.335 55.6708 282.601 54.789 281.681 53.8554C280.151 52.3512 278.353 51.1375 276.183 50.1416C274.064 49.1768 271.894 48.6373 269.755 48.5128C268.938 48.4713 259.42 48.4402 259.42 48.4402L244.91 33.3877C244.207 32.6823 243.535 32.0806 242.884 31.5515C241.22 30.2133 239.556 29.2693 237.81 28.6883C237.262 28.5016 236.714 28.3771 236.29 28.2837L235.464 28.1489L222.349 26.7588L234.265 48.8759L230.224 48.8345C230.224 48.8345 224.881 42.4233 224.323 41.8839C223.703 41.2926 222.928 40.7843 222.163 40.473C220.571 39.8195 219.062 39.8506 217.791 39.9232L207.539 40.3382L214.815 59.0112L207.539 77.6842L217.781 78.0992C219.062 78.1821 220.561 78.2132 222.152 77.5493C222.928 77.2381 223.692 76.7298 224.312 76.1385C224.871 75.6094 230.172 69.2088 230.172 69.2088L234.255 69.1569L222.338 91.2637L235.474 89.8631L236.29 89.7282C236.911 89.5934 237.376 89.4689 237.799 89.3236C239.546 88.7427 241.21 87.7988 242.884 86.4606C243.545 85.9315 259.42 69.5718 259.42 69.5718C259.42 69.5718 268.938 69.551 269.755 69.4992C271.894 69.385 274.054 68.8353 276.183 67.8705C278.363 66.885 280.162 65.6713 281.681 64.1567C282.601 63.2231 283.335 62.3412 283.924 61.0652L283.996 60.8785C284.099 60.6088 284.203 60.3494 284.285 60.0589C284.306 59.9863 284.327 59.9034 284.337 59.8307L284.368 59.6543C284.389 59.5506 284.409 59.4366 284.43 59.3328C284.471 59.115 284.471 58.8971 284.43 58.6793L284.451 58.6689ZM221.377 71.1072L221.243 71.2836C220.778 71.9371 220.375 72.3209 220.044 72.4454C219.786 72.5595 219.238 72.6737 218.091 72.5803L215.507 72.4765L220.881 59.0008L215.507 45.5251L218.091 45.4214C219.228 45.328 219.775 45.4422 220.044 45.5563C220.365 45.6704 220.768 46.0646 221.233 46.7181L225.976 52.3512C226.018 52.4031 226.224 52.6313 226.338 52.735C226.607 53.0048 226.906 53.2433 227.227 53.4404C227.857 53.845 228.591 54.1251 229.345 54.2496C229.945 54.3222 230.255 54.3222 230.513 54.3222C230.627 54.3222 230.741 54.3222 230.875 54.3222L243.515 54.4778L232.177 33.367L234.833 33.6055L235.226 33.6782C235.484 33.7405 235.784 33.8027 236.063 33.9064C237.169 34.2695 238.306 34.923 239.432 35.8359C239.939 36.2405 240.445 36.697 241.024 37.2779L257.074 53.9279C257.074 53.9279 268.948 53.9591 269.424 53.9902C270.871 54.0629 272.431 54.4674 273.93 55.1417C275.428 55.816 276.803 56.7289 277.816 57.7456C278.136 58.0672 278.312 58.5029 278.312 58.9698C278.312 59.4366 278.136 59.8722 277.795 60.2042C276.803 61.2001 275.418 62.1234 273.92 62.7977C272.421 63.4823 270.86 63.8765 269.403 63.9492C268.928 63.9803 257.053 64.0115 257.053 64.0115C257.053 64.0115 239.918 81.6989 239.412 82.1035C238.275 83.0164 237.148 83.6699 236.032 84.0434C235.763 84.1471 235.464 84.2093 235.195 84.2716L234.823 84.3442L232.136 84.5828L243.473 63.472L230.823 63.6276C230.699 63.6276 230.596 63.6276 230.482 63.6276C230.234 63.6276 229.914 63.6276 229.304 63.7002C228.56 63.8143 227.826 64.0944 227.196 64.5094C226.875 64.7169 226.576 64.9554 226.317 65.2147C226.204 65.3185 225.997 65.5467 225.956 65.6089L221.346 71.076L221.377 71.1072Z" fill="#57BBEB"/>
</g>
<circle id="Ellipse 50" cx="156" cy="81" r="15" fill="#57BBEB"/>
<circle id="Ellipse 51" cx="106" cy="115" r="14" fill="#57BBEB"/>
<circle id="Ellipse 52" cx="70" cy="164" r="13" fill="#57BBEB"/>
<circle id="Ellipse 53" cx="47" cy="223" r="12" fill="#57BBEB"/>
<circle id="Ellipse 54" cx="47" cy="276" r="11" fill="#57BBEB"/>
<circle id="Ellipse 55" cx="60" cy="331" r="10" fill="#57BBEB"/>
<circle id="Ellipse 56" cx="83" cy="376" r="9" fill="#57BBEB"/>
<circle id="Ellipse 57" cx="116" cy="410" r="8" fill="#57BBEB"/>
<circle id="Ellipse 58" cx="156" cy="437" r="7" fill="#57BBEB"/>
<circle id="Ellipse 59" cx="192" cy="452" r="6" fill="#57BBEB"/>
<circle id="Ellipse 60" cx="240" cy="459" r="5" fill="#57BBEB"/>
<circle id="Ellipse 61" cx="280" cy="456" r="4" fill="#57BBEB"/>
<circle id="Ellipse 62" cx="312" cy="447" r="3" fill="#57BBEB"/>
<circle id="Ellipse 63" cx="339" cy="436" r="2" fill="#57BBEB"/>
<circle id="Ellipse 64" cx="357" cy="425" r="1" fill="#57BBEB"/>
<circle id="Ellipse 66" cx="374" cy="412" r="1" fill="#57BBEB"/>
<circle id="Ellipse 67" cx="388" cy="399" r="1" fill="#57BBEB"/>
<circle id="Ellipse 68" cx="400" cy="386" r="1" fill="#57BBEB"/>
<circle id="Ellipse 65" cx="395.5" cy="255.5" r="0.5" fill="#57BBEB"/>
</g>
<path id="Vector 1006" d="M218 59L213 45.5L216 43L220.5 43.5L224.5 47L227 51L230.5 52.5H240.5L237 47L232.5 38L229 31.5L236 32L242.5 36.5L250 43.5L255 49.5L260 52.5L271 51.5L277.5 54.5L281 60L275 65L260 66L255 70.5L237 86L229.5 86.5L237.5 70.5L239 66L229.5 68L218 74.5L212 75L218 59Z" fill="#57BBEB"/>
</g>
<defs>
<clipPath id="clip0_720_2201">
<rect width="96" height="96" fill="white" transform="translate(198 11)"/>
</clipPath>
</defs>
</svg>
