<svg width="30" height="30" viewBox="0 0 30 30" fill="none" xmlns="http://www.w3.org/2000/svg">
<g id="icons/pagination-last">
<path id="Union" fill-rule="evenodd" clip-rule="evenodd" d="M14.1526 5.36598V5.36279H14.1494L14.1526 5.36598ZM14.1526 5.36598V6.27352C14.124 6.75268 14.1907 7.23502 14.3493 7.68879C14.5112 8.14257 14.7618 8.55826 15.0855 8.9105L21.1972 15.0222L15.0855 21.0863C14.7618 21.4417 14.5112 21.8574 14.3493 22.3112C14.1875 22.7649 14.1208 23.2441 14.1494 23.7264V24.6372L23.7866 15.0317L14.1526 5.36598ZM6.21639 5.37236V5.36282L6.21004 5.366L6.21639 5.37236ZM6.21639 5.37236V6.27355C6.18783 6.75271 6.25447 7.23505 6.41313 7.68882C6.57496 8.1426 6.82565 8.5583 7.14933 8.91053L13.261 15.0222L7.14933 21.0863C6.82565 21.4417 6.57496 21.8574 6.41313 22.3112C6.25129 22.765 6.18465 23.2441 6.21321 23.7265V24.6372L6.49246 24.358L6.55275 24.2977L15.8472 15.0349L6.21639 5.37236Z" fill="#051766"/>
</g>
</svg>
