<svg width="96" height="96" viewBox="0 0 96 96" fill="none" xmlns="http://www.w3.org/2000/svg">
<g id="icons/pin">
<path id="Vector" d="M70.015 22.8269V10.7432H25.9854V22.8269C25.9854 26.0662 28.0162 28.8384 30.8696 29.9452V44.1106C28.0162 45.2175 25.9854 47.9896 25.9854 51.2289V63.3127H45.2585V85.2767L47.198 83.6317C49.5132 81.6516 50.7419 79.377 50.7419 77.0516V63.3127H70.015V51.2289C70.015 47.9896 67.9841 45.2175 65.1307 44.1106V29.9452C67.9841 28.8384 70.015 26.0662 70.015 22.8269ZM64.5316 22.8269C64.5316 24.0049 63.5669 24.9695 62.389 24.9695H59.6473V49.0761H62.389C63.5669 49.0761 64.5316 50.0408 64.5316 51.2187V57.8191H31.4687V51.2187C31.4687 50.0408 32.4334 49.0761 33.6113 49.0761H36.353V24.9695H33.6113C32.4334 24.9695 31.4687 24.0049 31.4687 22.8269V16.2266H64.5316V22.8269Z" fill="#051766"/>
</g>
</svg>
