<svg width="25" height="24" viewBox="0 0 25 24" fill="none" xmlns="http://www.w3.org/2000/svg">
<g id="icons/calendar" clip-path="url(#clip0_822_8288)">
<g id="icons/share" clip-path="url(#clip1_822_8288)">
<path id="Vector" d="M16.6277 15.5711C15.9042 15.5711 15.248 15.8512 14.7519 16.3051L10.9358 13.0892C11.0831 12.7494 11.1657 12.3734 11.1657 11.9792C11.1657 11.5849 11.0831 11.2115 10.9358 10.8692L14.5788 7.79848C15.0594 8.19269 15.6743 8.4313 16.3409 8.4313C17.8807 8.4313 19.1313 7.17345 19.1313 5.62775C19.1313 4.08204 17.8782 2.82422 16.3409 2.82422C14.8036 2.82422 13.5505 4.08204 13.5505 5.62775C13.5505 6.00121 13.6254 6.35653 13.7572 6.68331L10.0909 9.7747C9.6181 9.40124 9.02129 9.17563 8.37537 9.17563C6.83548 9.17563 5.58496 10.4334 5.58496 11.9792C5.58496 13.5249 6.83807 14.7827 8.37537 14.7827C9.02387 14.7827 9.6181 14.5571 10.0935 14.1836L13.9897 17.4695C13.8941 17.7548 13.8373 18.0583 13.8373 18.3747C13.8373 19.9204 15.0904 21.1782 16.6277 21.1782C18.165 21.1782 19.4181 19.9204 19.4181 18.3747C19.4181 16.829 18.165 15.5711 16.6277 15.5711ZM14.9302 5.62515C14.9302 4.84451 15.5632 4.20653 16.3409 4.20653C17.1186 4.20653 17.7516 4.84192 17.7516 5.62515C17.7516 6.40838 17.1186 7.0438 16.3409 7.0438C16.1006 7.0438 15.8733 6.98155 15.6743 6.87522C15.2506 6.6444 14.956 6.20349 14.9328 5.68999C14.9328 5.66924 14.9302 5.6459 14.9302 5.62515ZM8.37537 13.3952C7.59767 13.3952 6.96461 12.7598 6.96461 11.9766C6.96461 11.1934 7.59767 10.5579 8.37537 10.5579C8.59498 10.5579 8.80164 10.6098 8.98767 10.7006C9.42173 10.9133 9.73179 11.3386 9.7783 11.8417C9.78346 11.8858 9.78606 11.9299 9.78606 11.974C9.78606 12.0181 9.78346 12.0648 9.7783 12.1063C9.73179 12.6094 9.42173 13.0373 8.98767 13.2474C8.80164 13.3381 8.59498 13.39 8.37537 13.39V13.3952ZM16.6277 19.7907C15.8939 19.7907 15.2919 19.2279 15.2222 18.5095C15.217 18.4654 15.2144 18.4188 15.2144 18.3721C15.2144 17.8897 15.4547 17.4644 15.8241 17.2076C16.0515 17.0494 16.328 16.9534 16.6277 16.9534C17.4054 16.9534 18.0384 17.5888 18.0384 18.3721C18.0384 19.1553 17.4054 19.7907 16.6277 19.7907Z" fill="white"/>
</g>
</g>
<defs>
<clipPath id="clip0_822_8288">
<rect width="24" height="24" fill="white" transform="translate(0.5)"/>
</clipPath>
<clipPath id="clip1_822_8288">
<rect width="24" height="24" fill="white" transform="translate(0.5)"/>
</clipPath>
</defs>
</svg>
