<svg width="96" height="96" viewBox="0 0 96 96" fill="none" xmlns="http://www.w3.org/2000/svg">
<g id="icons/tooltip" clip-path="url(#clip0_757_10065)">
<path id="Union" fill-rule="evenodd" clip-rule="evenodd" d="M73.5281 22.4819C66.8566 15.7597 57.6059 11.9111 48.1521 11.9111H47.8881C38.4039 11.9111 29.1532 15.7597 22.4919 22.4717C15.729 29.1737 11.8805 38.4853 11.911 47.9898C11.8703 57.5147 15.729 66.8263 22.4716 73.5181C29.143 80.2505 38.3937 84.099 47.8577 84.099H48.1217C57.6059 84.099 66.8566 80.2505 73.5179 73.5384C80.2807 66.8365 84.1293 57.5248 84.0988 48.0203C84.1394 38.4954 80.2807 29.194 73.5281 22.4921V22.4819ZM69.6389 69.6594C64.0743 75.2748 56.032 78.6156 48.1014 78.6156H47.9897H47.878C39.9677 78.6156 31.9253 75.2748 26.3404 69.6391C20.7047 64.044 17.3537 55.9611 17.3842 47.9898C17.3537 40.0389 20.7047 31.956 26.3607 26.3507C31.9253 20.7353 39.9677 17.3945 47.8983 17.3945H48.1115C56.0218 17.3945 64.0641 20.7353 69.6287 26.3507L69.6491 26.371C75.2848 31.9661 78.6357 40.0491 78.6053 48.0203C78.6357 55.9712 75.2848 64.0541 69.6287 69.6594H69.6389ZM46.6495 56.8242C43.9078 56.8242 42.1714 58.8957 42.1714 61.3023C42.1714 63.7089 43.9078 65.7804 46.6495 65.7804C49.3912 65.7804 51.1276 63.7089 51.1276 61.3023C51.1276 58.8957 49.3912 56.8242 46.6495 56.8242ZM40.8207 31.5194C42.4657 30.7476 44.6794 30.2196 47.4718 30.2196L47.4617 30.2399C54.4479 30.2399 59.0784 33.6112 59.0784 39.2977C59.0784 42.7603 57.4435 45.6036 53.3005 48.4976L51.3711 49.8481C50.0714 50.762 49.2996 51.5338 49.2996 52.8843V53.1686H43.8061V52.7828C43.8061 49.2185 45.0652 47.0963 47.8577 44.974L48.8732 44.2023C51.1376 42.4658 52.1937 41.0645 52.1937 39.2367C52.1937 36.9723 50.5588 35.4288 46.7509 35.4288C42.943 35.4288 39.5209 36.9723 36.9214 38.8001C36.9214 34.6977 37.8353 32.9207 40.8207 31.5194Z" fill="#051766"/>
</g>
<defs>
<clipPath id="clip0_757_10065">
<rect width="96" height="96" fill="white"/>
</clipPath>
</defs>
</svg>
